<svg t="1750564314220" class="icon" viewBox="0 0 1024 1024" version="1.1" xmlns="http://www.w3.org/2000/svg" p-id="1285" width="200" height="200"><path d="M314.88 443.904h205.824v51.2H314.88zM314.88 559.104h158.208v51.2H314.88z" fill="#00AC4E" p-id="1286"></path><path d="M819.2 363.008c0-99.328-80.384-179.712-179.712-179.712-70.656 0-133.632 41.472-162.816 104.448H204.8v552.96h557.056V493.568c36.352-33.792 57.344-80.896 57.344-130.56z m-179.712-128.512c70.656 0 128.512 57.344 128.512 128.512 0 38.912-17.408 75.264-47.616 99.84-26.624 22.016-62.976 31.744-96.768 27.136-2.048 0-3.584-0.512-5.632-0.512-61.952-10.24-106.496-63.488-106.496-126.464 0-14.336 2.048-27.648 6.656-41.472 17.408-52.224 66.048-87.04 121.344-87.04z m-51.712 555.008H256.512v-450.56h204.8c-1.024 7.68-1.536 15.872-1.536 24.064 0 9.216 1.024 18.432 2.048 27.648 0 1.024 0 2.048 0.512 2.56 1.536 8.704 3.584 16.896 6.144 25.088 0.512 1.024 0.512 2.56 1.024 3.584 2.56 7.68 6.144 15.36 9.728 23.04 0.512 1.024 1.024 2.56 2.048 3.584 4.096 7.168 8.192 14.336 13.312 20.992 0.512 1.024 1.536 1.536 2.048 2.56 5.12 6.656 10.752 13.312 16.896 19.456 0.512 0.512 1.024 1.024 1.536 1.024 13.312 12.288 28.16 23.04 44.544 31.232 0.512 0 1.024 0.512 1.536 1.024 7.68 3.584 16.384 7.168 24.576 9.728 0.512 0 1.024 0.512 2.048 0.512v254.464z m122.88 0h-71.68V542.72c9.728 0 19.456-1.024 29.184-2.56 0.512 0 1.024 0 2.048-0.512 9.216-1.536 18.432-4.096 27.136-7.168 1.536-0.512 3.072-1.024 4.096-1.536 3.072-1.024 5.632-2.048 8.704-3.072v261.632z" fill="#232323" p-id="1287"></path><path d="M633.856 445.952l-88.064-73.216 32.768-39.424 47.616 39.424 61.952-77.312 39.936 32.256z" fill="#00AC4E" p-id="1288"></path></svg>