<svg t="1750564264067" class="icon" viewBox="0 0 1024 1024" version="1.1" xmlns="http://www.w3.org/2000/svg" p-id="987" width="200" height="200"><path d="M601.6 771.9h-46v-50.7h46c68.4 0 124.1-55.6 124.1-124.1V471.9c-0.5-56-22.7-109.1-62.6-149.2-40.5-40.2-94.2-62.4-151.1-62.4-117 0-212.9 95-213.7 211.8l-50.7 1.7c1-146.6 119.6-264.2 264.5-264.2 70.4 0 136.8 27.5 187 77.3 49.4 49.7 76.8 115.3 77.4 184.9v125.5c0 96.2-78.5 174.6-174.9 174.6z" fill="#232323" p-id="988"></path><path d="M512 814.5c-38 0-68.9-30.9-68.9-68.8 0-38 30.9-68.9 68.9-68.9s68.9 30.9 68.9 68.9c0 37.9-30.9 68.8-68.9 68.8z m0-87c-10 0-18.1 8.1-18.1 18.1 0 10 8.1 18.1 18.1 18.1s18.1-8.1 18.1-18.1c0-10-8.1-18.1-18.1-18.1z" fill="#232323" p-id="989"></path><path d="M298.3 631.9h-52.9c-42.3 0-76.7-34.4-76.7-76.7v-31.8c0-42.3 34.4-76.7 76.7-76.7h52.9v185.2z m-52.9-134.6c-14.3 0-25.9 11.7-25.9 26v31.8c0 14.3 11.6 26 25.9 26h2.2v-83.8h-2.2zM778.6 631.9h-52.9V446.6h52.9c42.3 0 76.7 34.4 76.7 76.7v31.9c0 42.3-34.4 76.7-76.7 76.7z m-2.1-50.8h2.2c14.3 0 25.9-11.6 25.9-25.9v-31.9c0-14.3-11.6-25.9-25.9-25.9h-2.2v83.7z" fill="#00AC4E" p-id="990"></path></svg>